<svg width="322" height="111" viewBox="0 0 322 111" fill="none" xmlns="http://www.w3.org/2000/svg">
<path d="M272.123 110.5H260.539V55.3841C260.539 38.2993 273.762 25.4272 291.081 25.4272C308.399 25.4272 321.505 39.0014 321.505 55.3841C321.505 72.7029 308.984 85.5749 291.549 85.5749C283.825 85.5749 276.804 82.1814 272.123 77.0326V110.5ZM291.081 74.6922C301.729 74.6922 309.921 65.9158 309.921 55.5011C309.921 44.9694 301.729 36.427 291.081 36.427C280.315 36.427 272.123 44.9694 272.123 55.5011C272.123 65.9158 280.315 74.6922 291.081 74.6922Z" fill="white"/>
<path d="M240.956 38.3824C239.634 39.6003 238.494 41.0019 237.569 42.544L237.502 42.6881C237.439 42.8648 237.415 43.0527 237.43 43.2392C237.445 43.4261 237.499 43.6074 237.588 43.7719C237.678 43.9367 237.8 44.0804 237.949 44.1946C238.097 44.3085 238.268 44.3901 238.45 44.4342H238.619C240.736 44.6714 244.817 43.6542 246.486 44.5699C246.565 44.6211 246.657 44.6487 246.752 44.6487C246.847 44.6487 246.939 44.6211 247.019 44.5699C247.084 44.519 247.135 44.4528 247.167 44.3774C247.2 44.302 247.213 44.2194 247.205 44.1375C247.205 44.0866 247.205 44.0528 247.205 44.0102C246.587 41.3066 242.125 40.8573 241.591 38.518C241.578 38.4523 241.547 38.3917 241.5 38.3436C241.453 38.2954 241.394 38.2618 241.329 38.2467C241.26 38.2298 241.188 38.2336 241.122 38.2578C241.055 38.2819 240.998 38.3253 240.956 38.3824Z" fill="#4C9F38"/>
<path d="M243.506 36.433C243.293 36.6672 243.155 36.9592 243.108 37.272C243.061 37.5849 243.108 37.9046 243.242 38.1909C243.377 38.4772 243.593 38.7172 243.863 38.8808C244.134 39.0443 244.447 39.1241 244.762 39.1099C245.078 39.0958 245.383 38.9884 245.637 38.8013C245.892 38.6142 246.086 38.3558 246.194 38.0586C246.302 37.7614 246.32 37.4388 246.246 37.1314C246.171 36.824 246.007 36.5456 245.775 36.3313C245.46 36.0442 245.045 35.8937 244.619 35.9127C244.194 35.9318 243.793 36.1189 243.506 36.433Z" fill="#4C9F38"/>
<path d="M240.515 35.4828L240.448 35.3726C238.898 33.0671 234.597 34.2537 233.233 32.2788C233.196 32.2224 233.144 32.1774 233.083 32.149C233.021 32.1206 232.953 32.1098 232.886 32.1178C232.822 32.1235 232.761 32.1472 232.71 32.1862C232.659 32.2252 232.621 32.2779 232.598 32.3382C231.814 33.9474 231.261 35.6595 230.956 37.4237C230.956 37.4237 230.956 37.4237 230.956 37.4746C230.956 37.5254 230.956 37.5763 230.956 37.6272C230.963 37.8158 231.01 38.0007 231.093 38.1701C231.176 38.3394 231.294 38.4894 231.438 38.6104C231.581 38.7284 231.746 38.8162 231.924 38.8687C232.101 38.9211 232.287 38.937 232.471 38.9155H232.632C234.69 38.373 238.128 35.9489 240.016 36.2032C240.104 36.219 240.195 36.2095 240.278 36.1759C240.36 36.1423 240.432 36.0859 240.484 36.0132C240.537 35.9405 240.567 35.8545 240.573 35.7652C240.578 35.6758 240.558 35.5867 240.515 35.5082V35.4828Z" fill="#DDA63A"/>
<path d="M235.19 31.6717C235.487 31.7859 235.811 31.8095 236.121 31.7395C236.431 31.6695 236.714 31.509 236.933 31.2783C237.152 31.0477 237.298 30.7572 237.353 30.4435C237.407 30.1299 237.367 29.8071 237.238 29.5161C237.11 29.2251 236.898 28.9788 236.629 28.8084C236.36 28.6379 236.047 28.551 235.729 28.5586C235.412 28.5661 235.103 28.6678 234.843 28.8508C234.583 29.0338 234.382 29.2898 234.267 29.5867C234.191 29.7842 234.154 29.9949 234.159 30.2067C234.164 30.4185 234.211 30.6272 234.297 30.8209C234.382 31.0146 234.505 31.1895 234.659 31.3355C234.812 31.4815 234.993 31.5957 235.19 31.6717Z" fill="#DDA63A"/>
<path d="M230.719 30.0258L230.625 29.9496C228.339 28.3646 224.757 31.026 222.776 29.6699C222.719 29.6371 222.655 29.6199 222.59 29.6199C222.524 29.6199 222.46 29.6371 222.403 29.6699C222.345 29.6985 222.296 29.7431 222.261 29.7986C222.227 29.8541 222.208 29.9182 222.209 29.9835C222.055 31.7688 222.158 33.5671 222.514 35.3233C222.514 35.3233 222.514 35.3233 222.514 35.3742L222.564 35.5267C222.639 35.7006 222.749 35.8568 222.887 35.9853C223.026 36.1138 223.19 36.2117 223.369 36.2726C223.545 36.3288 223.731 36.3494 223.916 36.3334C224.1 36.3174 224.28 36.2651 224.444 36.1794L224.58 36.0861C226.273 34.8402 228.644 31.3311 230.507 30.8904C230.599 30.8685 230.682 30.8211 230.748 30.7536C230.814 30.6861 230.86 30.6013 230.879 30.509C230.901 30.4215 230.898 30.3296 230.869 30.244C230.841 30.1584 230.788 30.0828 230.719 30.0258Z" fill="#E5243B"/>
<path d="M224.377 28.4108C224.696 28.4124 225.008 28.3192 225.274 28.1429C225.54 27.9666 225.747 27.7151 225.87 27.4206C225.993 27.1259 226.025 26.8014 225.963 26.4883C225.902 26.1751 225.748 25.8873 225.523 25.6616C225.297 25.4359 225.01 25.2823 224.697 25.2205C224.384 25.1586 224.06 25.1912 223.766 25.3142C223.471 25.4371 223.22 25.6448 223.044 25.9109C222.868 26.1771 222.775 26.4896 222.776 26.8088C222.776 27.2337 222.945 27.6412 223.245 27.9416C223.545 28.242 223.952 28.4108 224.377 28.4108Z" fill="#E5243B"/>
<path d="M246.732 46.9706C245.063 47.6239 243.495 48.5116 242.075 49.6064H242.032C241.992 49.639 241.955 49.6759 241.922 49.7165C241.799 49.8599 241.707 50.0276 241.654 50.2085C241.599 50.3898 241.584 50.5803 241.609 50.7678C241.637 50.9509 241.701 51.1269 241.797 51.2855C241.892 51.4442 242.019 51.582 242.168 51.6915C242.219 51.6915 242.261 51.7424 242.32 51.7679C244.209 52.7596 248.383 53.285 249.602 54.7513C249.663 54.8236 249.743 54.8767 249.834 54.9037C249.924 54.931 250.02 54.931 250.111 54.904C250.191 54.882 250.264 54.8391 250.322 54.7796C250.38 54.72 250.421 54.6458 250.441 54.5648C250.445 54.5253 250.445 54.4856 250.441 54.4462C250.839 51.6915 246.867 49.6743 247.189 47.2924C247.199 47.2269 247.191 47.1599 247.166 47.0988C247.14 47.0376 247.099 46.9845 247.045 46.9451C246.994 46.9262 246.94 46.9187 246.886 46.9231C246.832 46.9274 246.779 46.9436 246.732 46.9706Z" fill="#C5192D"/>
<path d="M249.796 46.0657C249.511 46.2063 249.273 46.4288 249.114 46.7048C248.954 46.9807 248.88 47.2979 248.901 47.6161C248.922 47.9339 249.036 48.2387 249.23 48.4917C249.424 48.7446 249.689 48.934 249.99 49.0364C250.292 49.1385 250.617 49.1488 250.925 49.0659C251.232 48.983 251.508 48.8107 251.718 48.5705C251.928 48.3306 252.061 48.0335 252.102 47.7176C252.143 47.4013 252.089 47.0803 251.947 46.7948C251.756 46.4149 251.424 46.1253 251.021 45.9887C250.619 45.8525 250.179 45.8801 249.796 46.0657Z" fill="#C5192D"/>
<path d="M200.767 68.1563L200.607 68.097C198.574 67.4697 194.375 67.7156 192.901 66.5035C192.828 66.4445 192.741 66.4076 192.648 66.397C192.555 66.3868 192.46 66.4029 192.376 66.4442C192.302 66.4793 192.237 66.5342 192.191 66.6028C192.145 66.6714 192.118 66.7515 192.114 66.8341C192.105 66.876 192.105 66.9191 192.114 66.9613C192.224 69.7414 196.5 70.9957 196.619 73.3944C196.62 73.4608 196.64 73.5253 196.675 73.5812C196.71 73.6371 196.76 73.6824 196.82 73.7122C196.879 73.7417 196.945 73.7547 197.011 73.7494C197.077 73.7442 197.14 73.7212 197.194 73.6827C198.707 72.7239 200.079 71.5569 201.267 70.216C201.293 70.1716 201.321 70.1291 201.352 70.0888C201.447 69.9264 201.506 69.7455 201.525 69.5583C201.544 69.3711 201.522 69.1821 201.462 69.004C201.41 68.8227 201.322 68.6538 201.202 68.5083C201.083 68.3624 200.935 68.2426 200.767 68.1563Z" fill="#BF8B2E"/>
<path d="M192.385 72.5679C192.131 72.7597 191.939 73.0229 191.834 73.3236C191.73 73.6247 191.717 73.9497 191.797 74.2582C191.877 74.5664 192.047 74.8442 192.284 75.0559C192.522 75.2679 192.817 75.4045 193.132 75.4482C193.447 75.492 193.769 75.4414 194.055 75.3027C194.342 75.1636 194.58 74.9429 194.742 74.6682C194.902 74.3935 194.979 74.077 194.96 73.7588C194.941 73.441 194.829 73.1356 194.637 72.8813C194.378 72.543 193.997 72.3202 193.575 72.2615C193.153 72.2028 192.726 72.313 192.385 72.5679Z" fill="#BF8B2E"/>
<path d="M223.021 80.6602C222.998 80.6121 222.97 80.5665 222.936 80.5246C222.834 80.3675 222.7 80.2341 222.543 80.1332C222.385 80.0323 222.207 79.9662 222.022 79.9398C221.838 79.9141 221.651 79.9265 221.471 79.9761C221.292 80.0258 221.125 80.1115 220.98 80.2279L220.862 80.3464C219.397 81.8977 217.746 85.771 216.01 86.5423C215.925 86.5833 215.853 86.647 215.802 86.7261C215.752 86.8056 215.724 86.8974 215.722 86.9918C215.721 87.0747 215.742 87.1563 215.784 87.228C215.826 87.2997 215.886 87.3587 215.959 87.3984L216.069 87.458C218.609 88.5937 221.632 85.3219 223.826 86.2881C223.886 86.317 223.953 86.3288 224.019 86.3223C224.086 86.3158 224.149 86.2909 224.202 86.2506C224.256 86.2105 224.297 86.1562 224.321 86.0942C224.346 86.0321 224.353 85.9641 224.342 85.8983C224.15 84.0987 223.706 82.3351 223.021 80.6602Z" fill="#FD6925"/>
<path d="M222.463 87.7898C222.15 87.8476 221.861 87.9972 221.632 88.2197C221.404 88.4423 221.247 88.7278 221.181 89.0401C221.115 89.352 221.143 89.6767 221.262 89.9728C221.38 90.2689 221.584 90.5231 221.847 90.7031C222.111 90.8831 222.421 90.9809 222.74 90.984C223.058 90.9868 223.371 90.8949 223.637 90.7199C223.904 90.5451 224.112 90.2947 224.237 90.001C224.361 89.7071 224.395 89.3831 224.335 89.0696C224.254 88.6524 224.013 88.2837 223.663 88.0437C223.312 87.8041 222.881 87.7129 222.463 87.7898Z" fill="#FD6925"/>
<path d="M231.1 78.4235V78.381L230.973 78.2879C230.82 78.1786 230.646 78.1032 230.462 78.0669C230.278 78.0302 230.088 78.0333 229.906 78.0759C229.729 78.1215 229.563 78.2019 229.418 78.3124C229.272 78.4232 229.15 78.5616 229.059 78.7199L228.991 78.8726C228.145 80.8476 228.034 85.0515 226.697 86.4075C226.633 86.4755 226.589 86.5596 226.569 86.6509C226.55 86.7418 226.556 86.8368 226.586 86.9246C226.616 87.0032 226.667 87.0721 226.732 87.1242C226.798 87.1764 226.876 87.2102 226.959 87.2214H227.078C229.855 87.3654 231.498 83.2121 233.852 83.3223C233.919 83.3273 233.986 83.313 234.046 83.2816C234.106 83.25 234.156 83.2028 234.19 83.1445C234.219 83.0867 234.234 83.0228 234.234 82.9579C234.234 82.8934 234.219 82.8294 234.19 82.7714C233.372 81.1825 232.331 79.7184 231.1 78.4235Z" fill="#A21942"/>
<path d="M233.184 85.2987C232.913 85.4663 232.698 85.7105 232.565 86.0008C232.433 86.291 232.39 86.6138 232.442 86.9285C232.493 87.2429 232.636 87.5353 232.854 87.7684C233.071 88.0012 233.353 88.1645 233.663 88.2371C233.973 88.3097 234.298 88.2883 234.596 88.1759C234.894 88.0636 235.152 87.8652 235.338 87.6061C235.523 87.3466 235.627 87.0381 235.637 86.7193C235.647 86.4008 235.562 86.0861 235.394 85.8158C235.283 85.6361 235.138 85.4802 234.967 85.3567C234.796 85.2335 234.601 85.1453 234.396 85.0972C234.191 85.0491 233.978 85.0423 233.77 85.0767C233.562 85.1115 233.363 85.1869 233.184 85.2987Z" fill="#A21942"/>
<path d="M237.739 73.3367C237.739 73.3367 237.739 73.3367 237.688 73.3367H237.544C237.363 73.2908 237.174 73.2836 236.99 73.3153C236.806 73.3469 236.63 73.4171 236.475 73.5207C236.319 73.6247 236.187 73.7601 236.087 73.918C235.987 74.076 235.921 74.2536 235.894 74.4386C235.894 74.4895 235.894 74.5404 235.894 74.608C235.851 76.7441 237.24 80.7192 236.478 82.4651C236.443 82.5523 236.432 82.6473 236.447 82.7398C236.462 82.8323 236.502 82.9192 236.562 82.9909C236.619 83.0505 236.69 83.0949 236.768 83.1204C236.847 83.1455 236.93 83.1505 237.011 83.1349H237.138C239.772 82.2873 239.814 77.8034 242.083 77.0321C242.148 77.0132 242.205 76.9756 242.249 76.9244C242.292 76.8735 242.32 76.8108 242.329 76.7441C242.34 76.6814 242.334 76.6168 242.312 76.5573C242.289 76.4973 242.251 76.4449 242.202 76.4049C240.868 75.1745 239.365 74.1415 237.739 73.3367Z" fill="#FCC30B"/>
<path d="M242.108 78.9644C241.916 79.2186 241.804 79.524 241.785 79.8418C241.767 80.16 241.842 80.4763 242.004 80.7513C242.164 81.026 242.404 81.2466 242.69 81.3857C242.976 81.5244 243.297 81.575 243.613 81.5313C243.928 81.4872 244.223 81.3509 244.461 81.1389C244.699 80.9273 244.868 80.6495 244.948 80.3412C245.028 80.0327 245.015 79.7078 244.91 79.4067C244.806 79.1059 244.614 78.8427 244.361 78.6509C244.019 78.3958 243.591 78.2859 243.17 78.3445C242.748 78.4032 242.367 78.6261 242.108 78.9644Z" fill="#FCC30B"/>
<path d="M215.207 45.8062L233.02 56.143C233.274 56.2891 233.485 56.4996 233.632 56.7539C233.779 57.0086 233.856 57.2975 233.856 57.5914C233.856 57.8858 233.779 58.1743 233.632 58.429C233.485 58.6833 233.274 58.8942 233.02 59.04L215.207 69.3767C214.954 69.5225 214.667 69.5988 214.376 69.5988C214.084 69.5984 213.797 69.5216 213.545 69.3759C213.292 69.2298 213.081 69.0201 212.934 68.767C212.786 68.5144 212.708 68.2271 212.705 67.934V47.2604C212.706 46.9661 212.783 46.6776 212.93 46.4233C213.076 46.1686 213.286 45.9572 213.54 45.8099C213.793 45.6629 214.08 45.5849 214.373 45.5845C214.665 45.5837 214.953 45.66 215.207 45.8062Z" fill="white"/>
<path d="M220.329 28.6748C220.346 28.7676 220.336 28.8633 220.3 28.9505C220.264 29.0377 220.203 29.1126 220.126 29.1664C218.559 30.2513 217.654 34.3622 216.493 36.1506L216.4 36.2862C216.278 36.4269 216.129 36.5415 215.962 36.6231C215.795 36.7047 215.613 36.7515 215.426 36.7608C215.238 36.7675 215.051 36.7347 214.876 36.6647C214.701 36.5946 214.542 36.4888 214.41 36.354L214.309 36.2353C213.346 34.7262 212.602 33.0882 212.099 31.3701C212.072 31.3096 212.065 31.2425 212.077 31.1775C212.089 31.1125 212.12 31.0527 212.166 31.0057C212.21 30.9562 212.266 30.9197 212.329 30.9003C212.391 30.8808 212.458 30.8792 212.522 30.8955C214.859 31.438 217.239 27.6577 219.94 28.3527H220.058C220.125 28.3825 220.184 28.4269 220.23 28.4826C220.277 28.5385 220.311 28.6041 220.329 28.6748Z" fill="#19486A"/>
<path d="M212.945 29.2135C213.834 29.2135 214.554 28.4925 214.554 27.6031C214.554 26.7137 213.834 25.9927 212.945 25.9927C212.057 25.9927 211.336 26.7137 211.336 27.6031C211.336 28.4925 212.057 29.2135 212.945 29.2135Z" fill="#19486A"/>
<path d="M209.261 30.4409C209.222 30.4325 209.182 30.4325 209.143 30.4409C206.391 30.8054 205.535 35.1874 203.156 35.5265C203.089 35.534 203.026 35.5602 202.974 35.6023C202.921 35.6443 202.882 35.7003 202.86 35.7638C202.839 35.8239 202.834 35.8884 202.846 35.9508C202.858 36.0133 202.886 36.0715 202.927 36.1198C204.017 37.5435 205.306 38.8024 206.755 39.8576L206.899 39.9339C207.071 40.0093 207.257 40.0482 207.445 40.0482C207.633 40.0482 207.819 40.0093 207.991 39.9339C208.328 39.7771 208.589 39.494 208.719 39.1457C208.719 39.0948 208.719 39.044 208.762 38.9762C209.202 36.8911 208.567 32.7294 209.608 31.1529C209.658 31.0727 209.684 30.9802 209.684 30.8859C209.684 30.7916 209.658 30.6992 209.608 30.6189C209.566 30.5667 209.513 30.5239 209.453 30.4933C209.394 30.4626 209.328 30.4448 209.261 30.4409Z" fill="#00689D"/>
<path d="M203.486 33.4984C203.719 33.285 203.884 33.0072 203.96 32.7001C204.036 32.393 204.019 32.0703 203.912 31.7728C203.805 31.4752 203.612 31.2161 203.358 31.0281C203.104 30.8401 202.8 30.7315 202.484 30.7162C202.168 30.7009 201.855 30.7795 201.584 30.942C201.313 31.1045 201.096 31.3437 200.961 31.6295C200.825 31.9152 200.777 32.2348 200.823 32.5477C200.868 32.8607 201.006 33.1532 201.217 33.3883C201.504 33.7035 201.904 33.8922 202.329 33.9128C202.755 33.9335 203.171 33.7845 203.486 33.4984Z" fill="#00689D"/>
<path d="M200.581 36.4828C200.514 36.4317 200.435 36.3994 200.352 36.3889C200.269 36.3785 200.184 36.3904 200.107 36.4234L199.997 36.4743C197.558 37.8135 198.346 42.2125 196.254 43.3822C196.193 43.413 196.143 43.4605 196.108 43.5188C196.074 43.5775 196.057 43.6448 196.059 43.7128C196.061 43.7777 196.08 43.841 196.114 43.8959C196.148 43.9512 196.197 43.9962 196.254 44.0263C197.783 44.9568 199.437 45.6645 201.165 46.1282H201.216H201.368C201.557 46.14 201.746 46.1112 201.923 46.0441C202.099 45.9768 202.26 45.8725 202.393 45.7384C202.524 45.6074 202.626 45.4513 202.695 45.2793C202.763 45.1074 202.796 44.9233 202.791 44.7383C202.794 44.6818 202.794 44.6253 202.791 44.5689C202.444 42.4667 200.344 38.8136 200.776 36.9404C200.785 36.8538 200.772 36.7663 200.738 36.6861C200.704 36.606 200.65 36.536 200.581 36.4828Z" fill="#56C02B"/>
<path d="M195.077 39.2278C194.794 39.0872 194.476 39.0337 194.162 39.0742C193.848 39.1146 193.554 39.2472 193.315 39.4551C193.077 39.663 192.905 39.9371 192.822 40.2425C192.739 40.548 192.749 40.8712 192.849 41.1714C192.949 41.4715 193.136 41.7352 193.386 41.9292C193.636 42.1231 193.938 42.2385 194.253 42.2609C194.569 42.2833 194.884 42.2117 195.158 42.055C195.433 41.8983 195.656 41.6637 195.797 41.3807C195.893 41.1923 195.95 40.9868 195.965 40.7762C195.981 40.5655 195.955 40.3538 195.887 40.1535C195.82 39.9531 195.714 39.7681 195.575 39.6092C195.436 39.4503 195.267 39.3207 195.077 39.2278Z" fill="#56C02B"/>
<path d="M205.772 74.6196H205.603C203.478 74.772 199.676 76.5179 197.847 75.9248C197.757 75.8981 197.661 75.8966 197.57 75.9205C197.479 75.9444 197.396 75.9928 197.33 76.0604C197.275 76.1213 197.237 76.1955 197.219 76.2758C197.201 76.3559 197.205 76.4394 197.229 76.5179C197.239 76.5602 197.256 76.6005 197.28 76.6368C198.38 79.1795 202.826 78.8151 203.799 81.0105C203.828 81.0716 203.872 81.1241 203.927 81.1629C203.982 81.2014 204.046 81.2249 204.113 81.2308C204.177 81.2349 204.241 81.2215 204.298 81.1914C204.355 81.1616 204.402 81.1163 204.435 81.0611C205.501 79.6224 206.357 78.0382 206.975 76.3572V76.3146C206.979 76.2637 206.979 76.2128 206.975 76.1622C207.005 75.9773 206.996 75.7885 206.948 75.6076C206.9 75.4266 206.814 75.2578 206.697 75.1122C206.58 74.9666 206.433 74.8478 206.266 74.7627C206.099 74.6777 205.917 74.6289 205.73 74.6196H205.772Z" fill="#FD9D24"/>
<path d="M199.54 81.766C199.372 82.0369 199.289 82.3517 199.3 82.6704C199.312 82.9889 199.417 83.2968 199.604 83.5553C199.79 83.8139 200.049 84.011 200.347 84.1221C200.646 84.2332 200.97 84.2534 201.28 84.1798C201.59 84.106 201.871 83.9421 202.088 83.7084C202.304 83.4746 202.446 83.1819 202.497 82.8672C202.547 82.5525 202.503 82.23 202.37 81.9404C202.237 81.6508 202.021 81.4072 201.75 81.2405C201.387 81.0173 200.951 80.9475 200.536 81.0462C200.122 81.1446 199.764 81.4034 199.54 81.766Z" fill="#FD9D24"/>
<path d="M199.015 51.9111C197.931 50.0718 194.663 47.4273 194.392 45.5374C194.376 45.4455 194.335 45.3598 194.274 45.2894C194.213 45.2192 194.134 45.1671 194.044 45.1388C193.963 45.1162 193.878 45.1152 193.796 45.136C193.714 45.1568 193.64 45.1987 193.579 45.2577C193.545 45.2825 193.516 45.3142 193.494 45.3508C191.708 47.4698 194.028 51.2838 192.495 53.1402C192.453 53.1915 192.425 53.2529 192.415 53.3187C192.404 53.3842 192.412 53.4513 192.436 53.513C192.462 53.5726 192.503 53.6241 192.555 53.6626C192.607 53.7014 192.668 53.7256 192.732 53.7334C194.495 54.0515 196.294 54.1142 198.075 53.9199H198.236C198.421 53.8656 198.592 53.7725 198.738 53.6468C198.884 53.5211 199.001 53.3659 199.083 53.1911C199.154 53.0207 199.191 52.8376 199.191 52.6529C199.191 52.468 199.154 52.2851 199.083 52.1147L199.015 51.9111Z" fill="#0A97D9"/>
<path d="M189.929 49.6643C189.612 49.6355 189.294 49.7013 189.015 49.8534C188.736 50.0055 188.507 50.237 188.359 50.5188C188.212 50.8004 188.15 51.1197 188.184 51.4363C188.217 51.7529 188.343 52.0525 188.546 52.2973C188.749 52.5419 189.021 52.721 189.325 52.8117C189.63 52.9023 189.955 52.9007 190.259 52.8067C190.563 52.7126 190.832 52.5308 191.032 52.2837C191.233 52.0366 191.356 51.7356 191.386 51.4186C191.405 51.2079 191.383 50.995 191.321 50.7926C191.258 50.5899 191.157 50.4018 191.021 50.2389C190.886 50.0759 190.72 49.9412 190.532 49.8425C190.345 49.7441 190.14 49.6833 189.929 49.6643Z" fill="#0A97D9"/>
<path d="M198.591 60.2795L198.465 60.1777C196.771 58.8554 192.791 57.567 191.86 55.9397C191.811 55.8587 191.741 55.7928 191.658 55.7494C191.574 55.7059 191.48 55.6867 191.386 55.6938C191.304 55.7035 191.225 55.7329 191.157 55.7804C191.089 55.8276 191.034 55.8912 190.996 55.9651C190.978 56.0033 190.964 56.043 190.954 56.084C190.056 58.7114 193.587 61.4322 192.834 63.7123C192.812 63.776 192.808 63.8449 192.823 63.9107C192.838 63.9765 192.871 64.037 192.918 64.0851C192.963 64.1301 193.018 64.1633 193.079 64.181C193.14 64.1987 193.204 64.2009 193.265 64.1869C195.035 63.8467 196.746 63.253 198.346 62.4239H198.397L198.524 62.3392C198.668 62.2191 198.786 62.0707 198.871 61.9031C198.956 61.7352 199.004 61.5521 199.015 61.3643C199.027 61.1638 198.995 60.9626 198.922 60.7755C198.849 60.588 198.736 60.4188 198.591 60.2795Z" fill="#3F7E44"/>
<path d="M189.15 61.3591C188.843 61.445 188.569 61.6204 188.362 61.8625C188.155 62.1046 188.024 62.4029 187.986 62.7192C187.949 63.0358 188.006 63.3564 188.15 63.6404C188.295 63.9247 188.52 64.1594 188.798 64.3152C189.076 64.4707 189.394 64.5405 189.711 64.5154C190.028 64.4899 190.332 64.371 190.581 64.1733C190.831 63.9759 191.017 63.7084 191.115 63.4051C191.213 63.1016 191.219 62.776 191.131 62.4696C191.075 62.266 190.978 62.0757 190.848 61.9097C190.718 61.7433 190.556 61.6049 190.371 61.5015C190.187 61.3985 189.985 61.3327 189.775 61.3082C189.565 61.2836 189.353 61.301 189.15 61.3591Z" fill="#3F7E44"/>
<path d="M213.75 79.0768C213.586 78.988 213.407 78.9325 213.223 78.9135C213.038 78.8946 212.852 78.9126 212.674 78.9666L212.522 79.0346C210.591 79.9415 207.653 82.9588 205.748 83.0522C205.654 83.0581 205.563 83.091 205.487 83.1463C205.41 83.2018 205.351 83.2779 205.316 83.3657C205.287 83.443 205.278 83.5259 205.29 83.6075C205.302 83.6888 205.334 83.7661 205.384 83.8319L205.468 83.925C207.424 85.9 211.396 83.925 213.131 85.6204C213.177 85.6691 213.235 85.7039 213.3 85.7206C213.364 85.7371 213.432 85.7346 213.495 85.7135C213.558 85.6955 213.615 85.6604 213.66 85.6129C213.704 85.5651 213.735 85.5061 213.75 85.4422C214.222 83.7143 214.45 81.928 214.427 80.1365C214.427 80.1365 214.427 80.1365 214.427 80.0856V79.9329C214.38 79.751 214.295 79.5806 214.179 79.4331C214.062 79.2857 213.916 79.1643 213.75 79.0768Z" fill="#DD1367"/>
<path d="M211.328 86.6021C211.017 86.5437 210.696 86.5791 210.405 86.7039C210.114 86.8284 209.866 87.0363 209.694 87.3014C209.521 87.5668 209.43 87.8771 209.434 88.1937C209.437 88.5103 209.534 88.8189 209.712 89.0805C209.891 89.3419 210.143 89.5445 210.436 89.6628C210.73 89.7811 211.052 89.8096 211.361 89.7447C211.671 89.6799 211.954 89.5247 212.176 89.2987C212.398 89.0728 212.547 88.7863 212.606 88.4753C212.683 88.0572 212.592 87.6257 212.353 87.275C212.113 86.924 211.745 86.6822 211.328 86.6021Z" fill="#DD1367"/>
<path d="M242.21 66.2466H241.998C241.813 66.2739 241.635 66.3385 241.475 66.4359C241.315 66.5334 241.176 66.6622 241.066 66.8146C240.962 66.9679 240.889 67.1408 240.853 67.3227C240.817 67.5049 240.817 67.6924 240.855 67.8742C240.855 67.9248 240.855 67.9757 240.914 68.035C241.642 70.0438 244.369 73.2479 244.301 75.155C244.297 75.2484 244.319 75.3409 244.366 75.4219C244.412 75.5032 244.481 75.5693 244.564 75.6125C244.636 75.6544 244.718 75.6761 244.801 75.6761C244.884 75.6761 244.966 75.6544 245.038 75.6125C245.075 75.5951 245.109 75.5721 245.14 75.5448C247.29 73.7818 245.715 69.6118 247.553 68.0605C247.606 68.0198 247.646 67.9646 247.669 67.9012C247.691 67.8382 247.695 67.77 247.68 67.7045C247.665 67.6421 247.636 67.5843 247.592 67.5369C247.549 67.4894 247.495 67.4537 247.434 67.4335C245.758 66.7922 243.999 66.3928 242.21 66.2466Z" fill="#26BDE2"/>
<path d="M248.324 69.9455C248.237 70.2521 248.243 70.5777 248.341 70.881C248.439 71.1842 248.624 71.4518 248.874 71.6495C249.124 71.8472 249.427 71.9661 249.744 71.9912C250.062 72.0164 250.379 71.9468 250.657 71.791C250.935 71.6352 251.161 71.4006 251.305 71.1165C251.45 70.8325 251.507 70.5119 251.469 70.1953C251.431 69.8787 251.301 69.5804 251.093 69.3383C250.886 69.0962 250.612 68.9212 250.305 68.8352C249.895 68.7201 249.457 68.7725 249.086 68.9808C248.714 69.1887 248.44 69.5358 248.324 69.9455Z" fill="#26BDE2"/>
<path d="M248.815 57.0825C247.025 57.0977 245.246 57.3659 243.531 57.8792H243.48L243.336 57.9385C243.175 58.0273 243.033 58.1483 242.919 58.2939C242.805 58.4398 242.723 58.6071 242.676 58.7862C242.635 58.9662 242.63 59.1528 242.662 59.3346C242.694 59.5168 242.762 59.6903 242.862 59.8455L242.973 59.9728C244.378 61.5747 248.053 63.5751 248.688 65.3803C248.72 65.4685 248.776 65.5458 248.849 65.6041C248.922 65.6625 249.01 65.6994 249.103 65.7109C249.186 65.7183 249.269 65.7044 249.344 65.6702C249.42 65.6361 249.486 65.583 249.535 65.516C249.563 65.4834 249.586 65.4461 249.603 65.4058C250.974 62.9901 247.994 59.6677 249.154 57.5654C249.189 57.5083 249.207 57.4422 249.207 57.3749C249.207 57.3075 249.189 57.2414 249.154 57.1843C249.111 57.139 249.057 57.1061 248.998 57.0881C248.938 57.0704 248.876 57.0685 248.815 57.0825Z" fill="#FF3A21"/>
<path d="M252.016 57.3509C251.698 57.3791 251.397 57.5011 251.148 57.7016C250.9 57.9018 250.717 58.1715 250.622 58.476C250.528 58.7805 250.525 59.1064 250.616 59.4122C250.707 59.7182 250.886 59.9901 251.131 60.194C251.376 60.3976 251.677 60.524 251.993 60.5569C252.311 60.5894 252.63 60.5274 252.912 60.3781C253.193 60.2288 253.424 59.9991 253.575 59.7182C253.726 59.4373 253.791 59.1176 253.76 58.8001C253.741 58.5903 253.68 58.386 253.583 58.1995C253.484 58.0129 253.35 57.8478 253.188 57.7131C253.027 57.5784 252.84 57.4772 252.638 57.4148C252.437 57.3527 252.225 57.331 252.016 57.3509Z" fill="#FF3A21"/>
<path d="M135.654 84.1685H124.069V0.5H135.654V33.2653C140.101 28.4675 147.005 25.425 154.728 25.425C171.579 25.425 181.058 36.6588 181.058 54.2117V84.1685H169.473V55.3819C169.473 45.2012 163.856 36.4248 152.973 36.4248C142.792 36.4248 135.654 44.6161 135.654 55.7329V84.1685Z" fill="white"/>
<path d="M91.4275 85.4587C74.9279 85.6927 61.4707 72.0015 61.4707 55.3848C61.4707 38.8852 74.9279 25.311 91.4275 25.428C101.959 25.428 111.672 30.2258 116.938 40.5234L107.342 45.9063C103.949 39.7043 98.2146 36.4278 91.4275 36.4278C81.3639 36.4278 73.0556 44.9702 73.0556 55.3848C73.0556 65.9165 81.3639 74.5759 91.4275 74.5759C98.2146 74.5759 103.949 71.2994 107.342 65.0974L116.938 70.3632C111.672 80.7779 101.959 85.4587 91.4275 85.4587Z" fill="white"/>
<path d="M27.8505 74.3378C38.4992 74.3378 44.3501 65.0933 44.3501 54.4446V26.8281H55.935V55.8488C55.935 72.4655 45.8714 85.5716 27.8505 85.5716C10.0636 85.5716 0 72.3485 0 55.7318V26.8281H11.5849V54.5616C11.5849 65.0933 17.3188 74.3378 27.8505 74.3378Z" fill="white"/>
</svg>
